<?xml version="1.0" standalone="no"?>
<!DOCTYPE svg PUBLIC "-//W3C//DTD SVG 20010904//EN"
 "http://www.w3.org/TR/2001/REC-SVG-20010904/DTD/svg10.dtd">
<svg version="1.0" xmlns="http://www.w3.org/2000/svg"
 width="130.000000pt" height="88.000000pt" viewBox="0 0 130.000000 88.000000"
 preserveAspectRatio="xMidYMid meet">
<metadata>
Created by potrace 1.10, written by Peter Selinger 2001-2011
</metadata>
<g transform="translate(0.000000,88.000000) scale(0.100000,-0.100000)"
fill="#000000" stroke="none">
<path d="M295 854 c-62 -32 -83 -67 -119 -194 -11 -36 -31 -108 -46 -160 -15
-52 -42 -147 -60 -210 -18 -63 -39 -135 -46 -159 -18 -58 -18 -86 2 -106 14
-14 67 -15 497 -13 l482 3 33 23 c38 27 71 90 97 182 10 36 30 108 45 160 15
52 42 147 60 210 18 63 39 135 46 159 18 58 18 86 -2 105 -14 14 -72 16 -487
16 -409 0 -476 -2 -502 -16z m378 -135 c45 -21 51 -44 55 -214 3 -167 7 -205
21 -205 5 0 14 21 21 48 7 26 26 94 42 152 59 209 67 220 172 220 l58 0 -7
-37 c-6 -36 -36 -138 -107 -365 -44 -144 -89 -176 -229 -166 -48 4 -65 9 -87
31 -27 27 -27 28 -32 209 -5 191 -16 230 -40 141 -25 -95 -72 -259 -87 -302
-18 -52 -60 -74 -131 -69 -47 3 -47 3 -44 38 4 47 114 413 139 463 21 41 84
67 165 67 37 0 78 -5 91 -11z"/>
</g>
</svg>
