<?xml version="1.0" standalone="no"?>
<!DOCTYPE svg PUBLIC "-//W3C//DTD SVG 20010904//EN"
 "http://www.w3.org/TR/2001/REC-SVG-20010904/DTD/svg10.dtd">
<svg version="1.0" xmlns="http://www.w3.org/2000/svg"
 width="260.000000pt" height="34.000000pt" viewBox="0 0 260.000000 34.000000"
 preserveAspectRatio="xMidYMid meet">
<metadata>
Created by potrace 1.13, written by Peter Selinger 2001-2015
</metadata>
<g transform="translate(0.000000,34.000000) scale(0.100000,-0.100000)"
fill="#000000" stroke="none">
<path d="M1765 325 c-49 -18 -81 -55 -100 -119 -23 -77 -20 -142 9 -171 48
-48 182 -41 239 13 30 28 67 132 67 186 0 85 -105 130 -215 91z m106 -65 c38
-21 15 -137 -34 -174 -22 -16 -33 -18 -64 -10 -33 8 -38 13 -40 39 -4 48 28
128 57 142 31 16 55 16 81 3z"/>
<path d="M97 308 c-19 -17 -33 -54 -58 -148 -17 -69 -34 -131 -37 -137 -6 -18
53 -17 70 1 8 8 27 62 43 120 15 59 31 109 35 111 4 2 11 -44 14 -103 9 -124
19 -142 77 -142 63 0 83 27 119 165 17 66 33 128 36 138 4 13 -1 17 -23 17
-15 0 -34 -4 -42 -9 -7 -5 -26 -57 -43 -117 -16 -60 -33 -113 -39 -119 -5 -5
-9 15 -10 55 -1 94 -14 170 -30 181 -27 17 -87 10 -112 -13z"/>
<path d="M467 319 c-9 -5 -23 -22 -31 -37 -11 -22 -76 -249 -76 -266 0 -4 56
-6 124 -6 118 0 126 1 140 22 30 43 22 48 -74 48 -93 0 -100 4 -80 41 9 16 22
19 75 19 55 0 66 3 79 22 29 42 22 48 -59 48 -41 0 -75 3 -75 6 0 3 5 14 10
25 9 16 22 19 84 19 76 0 106 15 106 53 0 15 -13 17 -102 17 -57 0 -111 -5
-121 -11z"/>
<path d="M726 314 c-9 -8 -16 -24 -16 -35 0 -16 7 -19 56 -19 48 0 55 -2 50
-17 -16 -52 -56 -210 -56 -220 0 -17 55 -17 69 0 6 8 22 58 37 113 14 54 31
105 36 112 6 6 27 12 47 12 20 0 41 4 47 8 11 7 34 45 34 56 0 3 -65 6 -144 6
-118 0 -147 -3 -160 -16z"/>
<path d="M1067 310 c-34 -27 -44 -73 -23 -106 9 -13 44 -41 76 -62 83 -51 79
-62 -24 -62 -90 0 -116 -11 -116 -51 0 -18 8 -19 111 -19 61 0 119 5 131 11
29 16 50 72 38 103 -5 14 -38 44 -74 68 -36 24 -66 49 -66 56 0 8 22 12 78 12
83 0 112 14 112 53 0 15 -14 17 -109 17 -93 0 -112 -3 -134 -20z"/>
<path d="M1360 311 c-10 -20 -80 -274 -80 -292 0 -5 13 -9 30 -9 32 0 53 23
65 75 11 48 22 55 91 55 35 0 64 -1 64 -2 0 -2 -7 -28 -15 -58 -19 -72 -20
-70 15 -70 40 0 52 22 89 165 17 66 34 128 37 138 4 13 0 17 -20 17 -41 0 -54
-10 -67 -48 -19 -61 -35 -72 -101 -72 -32 0 -58 4 -58 8 0 5 7 31 15 58 8 27
15 50 15 52 0 1 -16 2 -35 2 -24 0 -37 -6 -45 -19z"/>
<path d="M2065 307 c-21 -17 -34 -50 -61 -147 -19 -69 -34 -131 -34 -137 0
-10 31 -13 124 -13 129 0 137 2 150 47 7 22 5 22 -88 25 l-95 3 12 25 c11 22
20 26 82 30 61 4 71 8 82 29 6 14 10 29 7 33 -3 4 -36 8 -75 8 -50 0 -69 4
-69 13 0 27 25 37 96 37 64 0 75 3 88 22 31 44 23 48 -88 48 -95 0 -107 -2
-131 -23z"/>
<path d="M2363 320 c-37 -15 -54 -69 -37 -115 4 -9 38 -37 76 -61 38 -25 66
-49 63 -54 -3 -6 -44 -10 -90 -10 -75 0 -85 -2 -99 -22 -31 -44 -24 -48 100
-48 114 0 116 0 145 29 31 32 38 75 17 103 -7 8 -41 34 -75 57 -35 23 -63 46
-63 51 0 6 35 10 78 10 83 0 105 9 117 48 6 22 6 22 -102 21 -59 0 -118 -4
-130 -9z"/>
</g>
</svg>
